<?xml version="1.0" encoding="utf-8"?>
<!-- Generator: Adobe Illustrator 15.1.0, SVG Export Plug-In . SVG Version: 6.00 Build 0)  -->
<!DOCTYPE svg PUBLIC "-//W3C//DTD SVG 1.1//EN" "http://www.w3.org/Graphics/SVG/1.1/DTD/svg11.dtd">
<svg version="1.1" id="Camada_1" xmlns="http://www.w3.org/2000/svg" xmlns:xlink="http://www.w3.org/1999/xlink" x="0px" y="0px"
	 width="403.479px" height="434.979px" viewBox="0 0 403.479 434.979" enable-background="new 0 0 403.479 434.979"
	 xml:space="preserve">
<path fill="#995FFF" stroke="#0000FF" stroke-width="7" stroke-miterlimit="10" d="M330.032,258.932
	c-26.873,89.537-72.262,169.268-161.398,169.268C79.5,428.199,7.24,352.416,7.24,258.932S79.689,95.767,168.634,89.655
	C404.415,73.461,457.884-167.06,330.032,258.932z"/>
<path fill="#DBE8F0" stroke="#0000FF" stroke-width="5" stroke-miterlimit="10" d="M26.506,250.238
	c0,60.586,32.741,109.701,73.133,109.701c40.394,0,73.131-49.115,73.131-109.701s-32.737-109.7-73.131-109.7
	C59.248,140.538,26.506,189.652,26.506,250.238z"/>
<polygon fill="#3D1FFF" stroke="#000000" stroke-miterlimit="10" points="32.95,223.098 83.416,189.969 137.344,217.109 
	140.804,277.379 90.333,310.51 36.409,283.369 "/>
<polygon fill="#FF0092" stroke="#000000" stroke-miterlimit="10" points="49.905,203.793 108.019,191.688 144.993,238.133 
	123.85,296.686 65.73,308.789 28.76,262.344 "/>
<polygon fill="#FF00EE" stroke="#000000" stroke-miterlimit="10" points="30.338,222.01 80.805,188.881 134.73,216.02 
	138.19,276.289 87.722,309.42 33.797,282.279 "/>
<polygon fill="#B500DF" stroke="#000000" stroke-miterlimit="10" points="66.492,193.414 125.895,204.174 146.278,260.998 
	107.261,307.063 47.858,296.303 27.473,239.479 "/>
<polygon fill="#55007F" stroke="#000000" stroke-miterlimit="10" points="64.927,223.389 99.155,217.824 121.106,244.674 
	108.823,277.088 74.595,282.652 52.646,255.803 "/>
<polygon fill="#00689F" stroke="#000000" stroke-miterlimit="10" points="52.676,232.656 84.765,212.359 118.965,228.854 
	121.077,265.643 88.986,285.939 54.787,269.447 "/>
<text transform="matrix(1 0 0 1 380.9805 428.2012)" font-family="'MyriadPro-Regular'" font-size="12">TM</text>
</svg>
